<svg id="Layer_1" enable-background="new 0 0 512.779 512.779" height="512" viewBox="0 0 512.779 512.779" width="512" xmlns="http://www.w3.org/2000/svg"><g><g><g><path d="m217.492 225.117c-8.284 0-15-6.716-15-15v-25.589c0-29.719 24.179-53.898 53.898-53.898s53.897 24.179 53.897 53.898v25.313c0 8.284-6.716 15-15 15s-15-6.716-15-15v-25.313c0-13.177-10.721-23.898-23.897-23.898-13.178 0-23.898 10.721-23.898 23.898v25.589c0 8.284-6.716 15-15 15z" fill="#e3dff6"/></g></g><g><path d="m69.834 431.648h-22.777c-25.641 0-46.501-20.86-46.501-46.501s20.86-46.501 46.501-46.501h22.755c8.284 0 15 6.716 15 15s-6.716 15-15 15h-22.755c-9.099 0-16.501 7.402-16.501 16.501s7.402 16.501 16.501 16.501h22.776c8.284 0 15 6.716 15 15s-6.715 15-14.999 15z" fill="#e3dff6"/></g><g><path d="m465.174 431.648h-22.777c-8.284 0-15-6.716-15-15s6.716-15 15-15h22.777c9.099 0 16.501-7.402 16.501-16.501s-7.402-16.501-16.501-16.501h-22.755c-8.284 0-15-6.716-15-15s6.716-15 15-15h22.755c25.641 0 46.501 20.86 46.501 46.501s-20.86 46.501-46.501 46.501z" fill="#b7b3e2"/></g><path d="m407.807 512.217h-302.834c-19.171 0-34.712-15.541-34.712-34.712v-179.084h372.258v179.085c-.001 19.17-15.541 34.711-34.712 34.711z" fill="#00485b"/><g><g><path d="m71.256 300.75c14.985-57.251 66.277-96.233 128.227-96.233h114.029c62.087 0 113.157 38.85 128.011 96.295z" fill="#00607f"/></g></g><g><g><g><path d="m112.916 166.851c-3.839 0-7.678-1.464-10.606-4.393-5.858-5.858-5.858-15.355 0-21.213 7.293-7.293 7.293-19.16 0-26.453-9.199-9.199-14.266-21.43-14.266-34.439 0-13.01 5.066-25.241 14.266-34.44 5.857-5.856 15.355-5.858 21.213 0s5.858 15.355 0 21.213c-3.533 3.533-5.479 8.23-5.479 13.226s1.945 9.693 5.479 13.226c18.989 18.991 18.989 49.889 0 68.879-2.93 2.929-6.769 4.394-10.607 4.394z" fill="#fdbf00"/></g></g><g><g><path d="m253.834 101.204c-3.839 0-7.678-1.464-10.606-4.393-5.857-5.858-5.858-15.355 0-21.213 3.889-3.89 3.889-10.218 0-14.108-7.551-7.55-11.709-17.589-11.709-28.267s4.158-20.717 11.709-28.267c5.857-5.858 15.355-5.858 21.213 0s5.858 15.355 0 21.213c-1.884 1.884-2.922 4.39-2.922 7.054s1.038 5.169 2.922 7.053c15.586 15.587 15.586 40.948 0 56.534-2.929 2.929-6.768 4.394-10.607 4.394z" fill="#fdbf00"/></g></g><g><path d="m399.864 164.9c-3.839 0-7.678-1.464-10.607-4.394-5.857-5.858-5.856-15.356.001-21.213 3.533-3.533 5.479-8.229 5.479-13.226 0-4.996-1.945-9.693-5.479-13.226-18.99-18.991-18.989-49.89 0-68.879 5.857-5.858 15.355-5.858 21.213 0s5.858 15.355 0 21.213c-7.293 7.293-7.293 19.16 0 26.453 9.199 9.199 14.266 21.43 14.266 34.439s-5.066 25.241-14.266 34.439c-2.929 2.93-6.769 4.394-10.607 4.394z" fill="#ff9f00"/></g></g><path d="m261.519 32.993c0-2.665 1.038-5.17 2.922-7.054 5.858-5.858 5.858-15.355 0-21.213-2.276-2.276-5.103-3.657-8.051-4.164v100.182c2.948-.507 5.775-1.888 8.051-4.164 15.586-15.586 15.586-40.947 0-56.534-1.884-1.883-2.922-4.388-2.922-7.053z" fill="#ff9f00"/><path d="m256.39 130.63v30c13.177 0 23.897 10.721 23.897 23.898v25.313c0 8.284 6.716 15 15 15s15-6.716 15-15v-25.313c.001-29.72-24.178-53.898-53.897-53.898z" fill="#b7b3e2"/><path d="m256.39 204.517v96.264l185.134.031c-14.854-57.445-65.924-96.295-128.011-96.295z" fill="#00485b"/><path d="m442.518 477.505v-179.084h-186.128v213.796h151.417c19.17 0 34.711-15.541 34.711-34.712z" fill="#00303d"/><g><path d="m497.779 315.756h-482.779c-8.284 0-15-6.716-15-15s6.716-15 15-15h482.779c8.284 0 15 6.716 15 15s-6.716 15-15 15z" fill="#fff5f5"/></g><path d="m497.779 285.756h-241.389v30h241.39c8.284 0 15-6.716 15-15s-6.717-15-15.001-15z" fill="#e3dff6"/></g></svg>